<svg width="184" height="184" viewBox="0 0 184 184" fill="none" xmlns="http://www.w3.org/2000/svg">
<path d="M103.071 27.6342H176.143" stroke="#F1FAEE" stroke-width="15" stroke-linecap="round"/>
<path d="M156.214 92H176.143" stroke="#F1FAEE" stroke-width="15" stroke-linecap="round"/>
<path d="M34.4286 156.366H7.85714" stroke="#F1FAEE" stroke-width="15" stroke-linecap="round"/>
<path d="M7.85714 27.6342H54.3571" stroke="#F1FAEE" stroke-width="15" stroke-linecap="round"/>
<path d="M7.85714 92H107.5" stroke="#F1FAEE" stroke-width="15" stroke-linecap="round"/>
<path d="M176.143 156.366H85.3571" stroke="#F1FAEE" stroke-width="15" stroke-linecap="round"/>
<path d="M76.5 47.6097C87.5062 47.6097 96.4286 38.6663 96.4286 27.6341C96.4286 16.6019 87.5062 7.65851 76.5 7.65851C65.4938 7.65851 56.5714 16.6019 56.5714 27.6341C56.5714 38.6663 65.4938 47.6097 76.5 47.6097Z" stroke="#F1FAEE" stroke-width="14"/>
<path d="M133.929 111.951C144.935 111.951 153.857 103.008 153.857 91.9756C153.857 80.9434 144.935 72 133.929 72C122.922 72 114 80.9434 114 91.9756C114 103.008 122.922 111.951 133.929 111.951Z" stroke="#F1FAEE" stroke-width="14"/>
<path d="M58.7857 136.39C47.7795 136.39 38.8571 145.334 38.8571 156.366C38.8571 167.398 47.7795 176.341 58.7857 176.341C69.792 176.341 78.7143 167.398 78.7143 156.366C78.7143 145.334 69.792 136.39 58.7857 136.39Z" stroke="#F1FAEE" stroke-width="14"/>
<path d="M140.577 92.7038H126.871" stroke="#F1FAEE" stroke-width="2" stroke-linecap="round"/>
<path d="M140.577 92.7039L140.577 86.657" stroke="#F1FAEE" stroke-width="2" stroke-linecap="round"/>
<path d="M131.167 88.2694L126.871 92.5656" stroke="#F1FAEE" stroke-width="2" stroke-linecap="round"/>
<path d="M126.871 92.7039L131.167 97" stroke="#F1FAEE" stroke-width="2" stroke-linecap="round"/>
</svg>
