<svg width="184" height="184" viewBox="0 0 184 184" fill="none" xmlns="http://www.w3.org/2000/svg">
<path d="M103.071 27.6342H176.143" stroke="white" stroke-width="15" stroke-linecap="round"/>
<path d="M156.214 92H176.143" stroke="white" stroke-width="15" stroke-linecap="round"/>
<path d="M34.4289 156.366H7.85742" stroke="white" stroke-width="15" stroke-linecap="round"/>
<path d="M7.85742 27.6342H54.3574" stroke="white" stroke-width="15" stroke-linecap="round"/>
<path d="M7.85742 92H107.5" stroke="white" stroke-width="15" stroke-linecap="round"/>
<path d="M176.143 156.366H85.3574" stroke="white" stroke-width="15" stroke-linecap="round"/>
<path d="M76.4999 47.6097C87.5061 47.6097 96.4285 38.6663 96.4285 27.6341C96.4285 16.6019 87.5061 7.65851 76.4999 7.65851C65.4937 7.65851 56.5713 16.6019 56.5713 27.6341C56.5713 38.6663 65.4937 47.6097 76.4999 47.6097Z" stroke="white" stroke-width="14"/>
<path d="M133.929 111.951C144.935 111.951 153.857 103.008 153.857 91.9756C153.857 80.9434 144.935 72 133.929 72C122.922 72 114 80.9434 114 91.9756C114 103.008 122.922 111.951 133.929 111.951Z" stroke="white" stroke-width="14"/>
<path d="M58.786 136.39C47.7798 136.39 38.8574 145.334 38.8574 156.366C38.8574 167.398 47.7798 176.341 58.786 176.341C69.7923 176.341 78.7146 167.398 78.7146 156.366C78.7146 145.334 69.7923 136.39 58.786 136.39Z" stroke="white" stroke-width="14"/>
<circle cx="134" cy="92" r="2" fill="white"/>
<circle cx="134" cy="98" r="2" fill="white"/>
<circle cx="134" cy="86" r="2" fill="white"/>
</svg>
