<svg width="51" height="15" viewBox="0 0 51 15" fill="none" xmlns="http://www.w3.org/2000/svg">
<rect y="3.85941" width="1.23095" height="8.60598" rx="0.615475" transform="rotate(-25.7269 0 3.85941)" fill="black"/>
<rect x="6.44232" y="3.85941" width="1.23095" height="8.60598" rx="0.615475" transform="rotate(-25.7269 6.44232 3.85941)" fill="black"/>
<rect width="1.23095" height="8.60598" rx="0.615475" transform="matrix(-0.900874 -0.434081 -0.434081 0.900874 8.0658 3.883)" fill="black"/>
<rect width="1.23095" height="8.60598" rx="0.615475" transform="matrix(-0.900874 -0.434081 -0.434081 0.900874 14.5081 3.883)" fill="black"/>
<rect width="1.23095" height="15.2165" rx="0.615475" transform="matrix(-0.964375 -0.264539 -0.264539 0.964375 29.8388 0.325634)" fill="black"/>
<rect width="1.23095" height="11.3255" rx="0.615475" transform="matrix(-0.434081 0.900874 0.900874 0.434081 28.3218 2.24849)" fill="black"/>
<rect x="24.0665" y="3.42898" width="1.23095" height="8.60598" rx="0.615475" transform="rotate(64.2731 24.0665 3.42898)" fill="black"/>
<rect x="30.7717" y="11.4948" width="1.23095" height="8.60598" rx="0.615475" transform="rotate(-115.727 30.7717 11.4948)" fill="black"/>
<rect width="1.23095" height="11.002" rx="0.615475" transform="matrix(0.434081 -0.900874 -0.900874 -0.434081 26.225 12.5348)" fill="black"/>
<rect width="1.2469" height="7.89705" rx="0.623451" transform="matrix(-1 8.74228e-08 8.74228e-08 1 41.7712 3.53289)" fill="black"/>
<rect width="1.2469" height="7.89705" rx="0.623451" transform="matrix(-1 8.74228e-08 8.74228e-08 1 47.1675 3.53289)" fill="black"/>
<rect x="50.4077" y="10.7751" width="1.2469" height="5.38283" rx="0.623451" transform="rotate(135 50.4077 10.7751)" fill="black"/>
<rect width="1.2469" height="3.27188" rx="0.623451" transform="matrix(-0.707107 -0.707107 -0.707107 0.707107 49.9471 6.49275)" fill="black"/>
<rect width="1.2469" height="3.22116" rx="0.623451" transform="matrix(1.19249e-08 -1 -1 -1.19249e-08 43.7455 11.4299)" fill="black"/>
</svg>
